<svg xmlns="http://www.w3.org/2000/svg" width="4021.706" height="1424.587" viewBox="0 0 4021.706 1424.587">
  <g id="Group_144" data-name="Group 144" transform="translate(-4582.4 -6337.508)">
    <g id="Group_53" data-name="Group 53" transform="translate(4582.4 6337.508)">
      <path id="Path_1" data-name="Path 1" d="M3512.67,561.349c-.672-101.962-72.164-143.315-160.295-92.536-70.2,40.444-140.162,81.282-210.262,121.873-65.334,37.832-130.578,75.847-196.268,113.051-10,5.663-23,22.131-33.363.718-15.312-31.615,3.225-83.824,35.457-102.607,74.354-43.337,148.412-87.2,223.309-129.539,64.936-36.7,125.906-79.706,193.262-112.883,45.879-22.593,93.613-44.652,131.059-83.15,19.566-20.117,18.523-38.792,8.227-59.175-11.781-23.331-33.262-32.858-58.721-27.464-13.076,2.769-25.707,9.525-37.479,16.32-162.871,94.022-323.887,191.422-488.959,281.384-87.287,47.571-135.744,109.212-122.488,211.025,0,15.108-.24,30.222.041,45.325,1.75,94.891,71.164,134.98,154.4,88.4,61.1-34.191,121.535-69.569,181.938-104.983,79.4-46.555,155.445-98.97,239.246-137.836,8.631-4,20.8-20.145,27.834,2.444,12.836,41.232-2.957,82.535-41.549,105.171-73.414,43.06-147.207,85.475-220.949,127.987-101.07,58.281-202.539,115.909-303.236,174.854-36.91,21.611-46.715,52.512-29.781,82.441,17.129,30.286,48.359,36.934,85.578,17.1,25.412-13.549,50.219-28.249,75.123-42.752,152.682-88.916,302.8-182.233,458.646-265.683,61.506-32.933,89.723-86.164,89.354-155.3-.125-24.722.041-49.447-.125-74.17" transform="translate(-2595.091 42.911)" fill="#bc2649"/>
      <path id="Path_2" data-name="Path 2" d="M3305.97,205.162c39.715-21.466,50.85-54.687,33.211-84.195-18.365-30.708-49.291-35.249-89.584-12.029-172.234,99.251-343.487,200.259-516.875,297.45-71.8,40.246-104.883,96.931-100.267,177.777.934,16.407.13,32.912.13,49.372h-.156c0,24.689-.1,49.38.026,74.069.255,49.61,18.7,74.427,55.859,75.409,38.35,1.015,56.881-22.366,57.134-73.027.233-46.634.646-93.289-.4-139.9-.625-27.655,10.016-46.35,34.123-60.344,50.687-29.437,98.813-63.608,150.769-90.474,128.278-66.331,249.112-145.5,376.026-214.105" transform="translate(-2632.031 21.491)" fill="#bc2649"/>
      <path id="Path_3" data-name="Path 3" d="M3204.084,860.406c-104.076,60.98-207.664,122.81-311.842,183.62-27.365,15.97-39.586,38.429-31.8,68.559,7.074,27.423,28.7,40.807,55.975,38.7,23.8-1.835,32.945,7.5,40.182,28.981,11.781,34.987,39.113,51.363,83.33,50.756,30.014-1.542,55.193-20.184,66.225-55.107,4.639-14.674,8.816-22.586,26.385-24.453,63.5-6.744,72.395-15.056,68.908-80.283-2.834-53.074,3.457-94.118,60.682-117.548,35.25-14.432,42.158-51.626,24.766-79.042-17.92-28.266-48.7-34.162-82.8-14.183" transform="translate(-2580.46 193.549)" fill="#bc2649"/>
      <path id="Path_4" data-name="Path 4" d="M2693.836,341.121c10.592.411,21.362-4.662,32.354-11.045,126.913-73.686,254.2-146.731,381.035-220.562C3145.52,87.22,3156.531,57.238,3139.5,28.3c-18.49-31.425-49.795-37.169-89.559-14.742C2992.6,45.9,2935.8,79.187,2878.8,112.119q-104.987,60.652-209.878,121.463c-25.817,15.049-43.256,36.36-33.165,67.687,8.172,25.33,26.928,40.955,58.083,39.852" transform="translate(-2631.844 -0.005)" fill="#bc2649"/>
    </g>
    <g id="Group_54" data-name="Group 54" transform="translate(5727.653 6490.9)">
      <path id="Path_31" data-name="Path 31" d="M2.752,696.556c0,35.774,30.184,65.958,65.958,65.958s65.958-30.184,65.958-65.958V421.545H370.553a60.117,60.117,0,0,0,60.369-60.368c0-34.656-26.83-61.486-60.369-61.486H134.669V91.755H370.553c33.538,0,60.369-26.83,60.369-61.486A60.117,60.117,0,0,0,370.553-30.1H68.71C32.936-30.1,2.752-1.034,2.752,34.74ZM751.77,763.632c95.025,0,172.163-41.364,214.644-92.788C977.594,658.546,984.3,642.9,984.3,630.6c0-34.656-25.713-59.25-60.369-59.25-23.477,0-35.774,13.415-53.661,27.948-26.831,27.948-65.958,50.307-118.5,50.307-97.261,0-172.162-81.609-172.162-182.223,0-101.732,76.02-182.223,172.162-182.223,24.595,0,54.779,6.708,73.784,20.123L690.284,464.026c-10.061,10.061-13.415,23.477-13.415,36.892,0,32.42,24.595,55.9,58.133,55.9,16.769,0,30.184-5.59,42.482-20.123L949.645,332.11c13.415-15.651,17.887-29.066,17.887-44.717,0-17.887-8.943-34.656-22.359-46.953-38.01-34.656-106.2-69.312-193.4-69.312-169.927,0-296.253,130.8-296.253,296.252S582.962,763.632,751.77,763.632ZM1026.783,629.48c0,69.312,87.2,134.152,186.7,134.152,105.086,0,186.7-80.491,186.7-174.4,0-111.793-77.138-147.567-145.332-168.808-57.015-19-103.968-33.538-103.968-79.373,0-32.42,24.594-60.368,62.6-60.368,43.6,0,70.43,32.42,89.435,53.661,7.826,15.651,23.477,20.123,35.774,20.123,31.3,0,57.015-23.477,57.015-54.779,0-70.43-87.2-128.562-182.224-128.562-102.85,0-181.106,74.9-181.106,169.926,0,115.147,79.374,145.331,149.8,169.926,52.543,17.887,95.025,35.774,95.025,81.609,0,32.42-26.83,60.368-63.723,60.368-48.071,0-71.548-33.538-88.317-58.133-8.943-14.533-24.595-22.359-42.482-22.359C1051.378,572.466,1026.783,598.178,1026.783,629.48Zm887.642,70.43c0,34.656,26.831,62.6,61.487,62.6s61.486-27.948,61.486-62.6V233.732c0-34.656-26.83-61.486-61.486-61.486s-61.487,26.83-61.487,61.486v7.826c-49.189-44.717-114.03-70.43-185.578-70.43-160.983,0-282.838,130.8-282.838,296.252s121.855,296.252,282.838,296.252c71.548,0,136.389-25.712,185.578-69.312ZM1742.263,649.6c-96.143,0-172.162-78.255-172.162-182.223s76.02-182.223,172.162-182.223c93.907,0,167.691,74.9,172.162,174.4v7.826C1914.425,571.348,1838.406,649.6,1742.263,649.6Zm389.042,50.307c0,34.656,26.83,62.6,61.486,62.6s61.487-27.948,61.487-62.6v-305.2c0-73.784,42.482-109.557,95.025-109.557s95.025,35.774,95.025,109.557v305.2c0,34.656,26.831,62.6,61.487,62.6,33.538,0,61.486-27.948,61.486-62.6v-305.2c0-73.784,41.364-109.557,93.907-109.557,53.661,0,95.025,35.774,95.025,109.557v305.2c0,34.656,26.83,62.6,61.487,62.6s61.486-27.948,61.486-62.6V395.832c0-139.742-93.906-224.7-212.408-224.7-65.958,0-126.327,23.477-160.983,82.727-36.892-59.25-93.907-82.727-162.1-82.727-118.5,0-212.408,84.963-212.408,224.7Z" transform="translate(-2.752 30.1)" fill="#bc2649"/>
      <path id="Path_32" data-name="Path 32" d="M99.116,7.626V-5.449h23.358V52.565H99.116v-13.2Q84.263,17.02,58.493,17.02q-15.741,0-24.12,6.347t-8.378,18.28q0,11.425,7.934,17.392t24.31,10.156l22.469,5.966q21.454,5.713,32.942,15.107t14.98,19.93a74.387,74.387,0,0,1,3.491,23.485q0,26.024-16.249,41.257T72.33,190.174q-26.024,0-47.351-19.042V187H1.113V117.307H24.979v16.884q17.138,31.482,44.685,31.482,16.122,0,25.008-8.315t8.886-23.421q0-20.565-28.944-28.563L50.749,98.646q-25.77-7.363-38.084-19.93T.352,45.583q0-25.262,14.916-39.163T56.462-7.48Q79.312-7.48,99.116,7.626ZM502.686,120.481a70.058,70.058,0,0,1-9.267,35.545,69.106,69.106,0,0,1-60.68,34.91,70.531,70.531,0,0,1-36.18-9.394,66.308,66.308,0,0,1-25.072-25.516,72,72,0,0,1-8.95-35.545q0-20.311,8.95-36.306A64.572,64.572,0,0,1,396.432,59.1q16-9.077,36.307-9.077a68.068,68.068,0,0,1,35.672,9.584,70.312,70.312,0,0,1,34.275,60.87Zm-69.947,44.939a39.767,39.767,0,0,0,21.454-6.093,42.344,42.344,0,0,0,15.233-16.376,47.173,47.173,0,0,0,5.459-22.469,46.657,46.657,0,0,0-5.459-22.215A43.778,43.778,0,0,0,454.193,81.7a40.548,40.548,0,0,0-43.162-.127,43.538,43.538,0,0,0-15.36,16.566,47.478,47.478,0,0,0,0,44.685,42.74,42.74,0,0,0,15.487,16.5A40.407,40.407,0,0,0,432.739,165.419Zm366.629-1.777V187h-70.2V163.642h23.612V18.8H729.167v-23.1h49.89V163.642Zm289.573,2.793q17.646,0,38.211-17.138V77.065H1103.54V53.58h49.89V163.642h22.85V187h-49.128V171.64q-23.1,17.645-43.923,17.645-18.788,0-27.738-11.171t-8.95-37.068V77.065H1027.88V53.58h44.939V146.5q0,10.283,3.745,15.107T1088.941,166.435ZM1470.3,53.58V77.065h-24.374v69.947q0,10.917,2.349,14.154t8.061,3.237a42.533,42.533,0,0,0,13.964-2.412v23.739q-12.187,3.554-19.677,3.554-16.5,0-23.739-8.315t-7.236-28.5V77.065h-17.392V53.58h17.392V33.4L1445.923,9.4V53.58ZM1745.144,8.642a15.258,15.258,0,0,1-4.7,11.171,15.258,15.258,0,0,1-11.171,4.7,14.845,14.845,0,0,1-11.044-4.7,15.47,15.47,0,0,1-4.57-11.171,15.47,15.47,0,0,1,4.57-11.171,14.845,14.845,0,0,1,11.044-4.7,15.347,15.347,0,0,1,11.3,4.57A15.348,15.348,0,0,1,1745.144,8.642Zm18.788,155V187h-67.408V163.642h20.819V77.065h-20.819V53.58h47.1V163.642Zm367.391-43.161a70.056,70.056,0,0,1-9.267,35.545,69.106,69.106,0,0,1-60.68,34.91,70.532,70.532,0,0,1-36.18-9.394,66.308,66.308,0,0,1-25.072-25.516,72,72,0,0,1-8.95-35.545q0-20.311,8.95-36.306A64.574,64.574,0,0,1,2025.069,59.1q16-9.077,36.307-9.077a68.069,68.069,0,0,1,35.672,9.584,70.313,70.313,0,0,1,34.275,60.87Zm-69.947,44.939a39.767,39.767,0,0,0,21.454-6.093,42.342,42.342,0,0,0,15.233-16.376,47.171,47.171,0,0,0,5.459-22.469,46.654,46.654,0,0,0-5.459-22.215A43.776,43.776,0,0,0,2082.83,81.7a40.547,40.547,0,0,0-43.162-.127,43.538,43.538,0,0,0-15.36,16.566,47.478,47.478,0,0,0,0,44.685,42.739,42.739,0,0,0,15.487,16.5A40.406,40.406,0,0,0,2061.376,165.419Zm428.452-68.17v66.392h22.343V187h-48.62V98.9q0-12.568-3.618-18.026t-11.869-5.459q-17.519,0-39.353,17.265v70.963h22.977V187h-72.359V163.642h23.485V77.065h-23.485V53.58h49.382V69.7q24.5-17.9,46.081-17.9,17.9,0,26.469,11.044T2489.828,97.25Zm329.688-37.957V53.58h22.851v44.3h-22.851V89.76q-11.425-16.376-31.229-16.376-10.41,0-17.011,4.57t-6.6,11.806a11.9,11.9,0,0,0,5.014,10.156q5.014,3.681,22.533,6.474l17.646,3.428q39.48,7.236,39.48,38.718,0,18.407-14.281,29.578t-37.893,11.171a63.813,63.813,0,0,1-18.471-2.729,56.776,56.776,0,0,1-15.17-6.792V187h-23.358V141.3h23.358v4.57q1.9,9.648,10.727,15.487a36.286,36.286,0,0,0,20.5,5.839q12.821,0,20.185-4.507t7.363-13.393a10.455,10.455,0,0,0-5.84-9.711q-5.84-3.237-23.485-6.665L2779.4,130q-20.184-4.062-29.578-13.964t-9.394-25.262q0-12.441,6.918-21.263a42.737,42.737,0,0,1,17.709-13.266,57.826,57.826,0,0,1,22.216-4.443Q2806.44,51.8,2819.516,59.293Z" transform="translate(15.236 933.532)"/>
    </g>
  </g>
</svg>
